<svg xmlns="http://www.w3.org/2000/svg" viewBox="0 0 600 450" preserveAspectRatio="xMidYMid slice">
  <defs><linearGradient id="sky-sg" x1="0" y1="0" x2="0" y2="1"><stop offset="0%" stop-color="#1d3a5f"/><stop offset="100%" stop-color="#0a1628"/></linearGradient></defs>
  <rect width="600" height="450" fill="url(#sky-sg)"/>
  <!-- building -->
  <rect x="0" y="200" width="600" height="250" fill="#2a4a70"/>
  <!-- big sign -->
  <rect x="120" y="120" width="360" height="120" fill="#0a1628" stroke="#5fe6ff" stroke-width="3"/>
  <text x="300" y="200" font-family="sans-serif" font-size="56" font-weight="700" fill="#5fe6ff" text-anchor="middle" letter-spacing="4">BRAND</text>
  <!-- sign post -->
  <rect x="290" y="240" width="20" height="60" fill="#0a1628"/>
  <!-- drone cleaning -->
  <g transform="translate(420, 100)">
    <rect x="-25" y="-3" width="50" height="6" fill="#0a1628" rx="2"/>
    <rect x="-3" y="-25" width="6" height="50" fill="#0a1628" rx="2"/>
    <ellipse cx="0" cy="0" rx="16" ry="10" fill="#0a1628"/>
    <ellipse cx="0" cy="-1" rx="9" ry="5" fill="#5fe6ff"/>
    <g opacity="0.5"><ellipse cx="-25" cy="-25" rx="16" ry="2" fill="white"/><ellipse cx="25" cy="-25" rx="16" ry="2" fill="white"/><ellipse cx="-25" cy="25" rx="16" ry="2" fill="white"/><ellipse cx="25" cy="25" rx="16" ry="2" fill="white"/></g>
    <path d="M -8 12 L -20 60 L 20 60 L 8 12 Z" fill="white" opacity="0.4"/>
  </g>
</svg>
