<svg xmlns="http://www.w3.org/2000/svg" viewBox="0 0 600 450" preserveAspectRatio="xMidYMid slice">
  <defs>
    <linearGradient id="sky-w" x1="0" y1="0" x2="0" y2="1"><stop offset="0%" stop-color="#5fa8d8"/><stop offset="100%" stop-color="#1d3a5f"/></linearGradient>
    <linearGradient id="g-w" x1="0" y1="0" x2="1" y2="1"><stop offset="0%" stop-color="#a8d8f0"/><stop offset="100%" stop-color="#5fb0d8"/></linearGradient>
  </defs>
  <rect width="600" height="450" fill="url(#sky-w)"/>
  <rect x="80" y="30" width="440" height="420" fill="#2a4a70"/>
  <g fill="url(#g-w)">
    <rect x="100" y="50" width="80" height="60"/><rect x="190" y="50" width="80" height="60"/>
    <rect x="280" y="50" width="80" height="60"/><rect x="370" y="50" width="80" height="60"/>
    <rect x="100" y="120" width="80" height="60"/><rect x="190" y="120" width="80" height="60"/>
    <rect x="280" y="120" width="80" height="60"/><rect x="370" y="120" width="80" height="60"/>
    <rect x="100" y="190" width="80" height="60"/><rect x="190" y="190" width="80" height="60"/>
    <rect x="280" y="190" width="80" height="60"/><rect x="370" y="190" width="80" height="60"/>
    <rect x="100" y="260" width="80" height="60"/><rect x="190" y="260" width="80" height="60"/>
    <rect x="280" y="260" width="80" height="60"/><rect x="370" y="260" width="80" height="60"/>
  </g>
  <!-- clean streak -->
  <rect x="280" y="30" width="80" height="420" fill="white" opacity="0.18"/>
  <!-- drone -->
  <g transform="translate(330, 220)">
    <rect x="-30" y="-3" width="60" height="6" fill="#0a1628" rx="2"/>
    <rect x="-3" y="-30" width="6" height="60" fill="#0a1628" rx="2"/>
    <ellipse cx="0" cy="0" rx="18" ry="12" fill="#0a1628"/>
    <ellipse cx="0" cy="-2" rx="11" ry="6" fill="#5fe6ff"/>
    <g opacity="0.5"><ellipse cx="-30" cy="-30" rx="18" ry="2.5" fill="white"/><ellipse cx="30" cy="-30" rx="18" ry="2.5" fill="white"/><ellipse cx="-30" cy="30" rx="18" ry="2.5" fill="white"/><ellipse cx="30" cy="30" rx="18" ry="2.5" fill="white"/></g>
    <circle cx="-30" cy="-30" r="3" fill="#1ed05b"/><circle cx="30" cy="-30" r="3" fill="#ff3b30"/>
  </g>
</svg>
